<svg xmlns="http://www.w3.org/2000/svg" xmlns:xlink="http://www.w3.org/1999/xlink" version="1.1" x="0px" y="0px" viewBox="0 0 100 100" enable-background="new 0 0 100 100" xml:space="preserve"><path d="M50.132,32.775h-0.001L5.131,6.795v68.223l37.986,16.474c2.168,1.231,4.591,1.847,7.014,1.847  c2.423,0,4.846-0.616,7.014-1.847l37.986-16.474V6.795L50.132,32.775z M8.55,72.774V12.678l3.319,1.935v56.642l20.596,11.891  L8.55,72.774z M46.319,87.196l-31.03-17.915V16.607l33.133,19.129l0,0l0.001,52.283C47.687,87.85,46.977,87.576,46.319,87.196z   M53.943,87.196c-0.657,0.379-1.367,0.653-2.102,0.823l-0.001-52.283l0.001,0l33.133-19.129v52.674L53.943,87.196z M91.712,72.774  L67.797,83.146l20.596-11.891V14.614l3.319-1.935V72.774z M22.048,28.781l21.164,12.219v1.692L22.048,30.472V28.781z M22.048,37.327  l21.164,12.219v1.692L22.048,39.018V37.327z M22.048,45.873l21.164,12.219v1.692L22.048,47.565V45.873z M22.048,54.419  l21.164,12.219v1.692L22.048,56.111V54.419z M22.048,62.965l21.164,12.219v1.692L22.048,64.657V62.965z M57.051,40.999  l21.164-12.219v1.692L57.051,42.691V40.999z M57.051,49.546l21.164-12.219v1.692L57.051,51.237V49.546z M57.051,58.092  l21.164-12.219v1.692L57.051,59.783V58.092z M57.051,66.638l21.164-12.219v1.692L57.051,68.33V66.638z M57.051,75.184l21.164-12.219  v1.692L57.051,76.876V75.184z"></path></svg>