<svg xmlns="http://www.w3.org/2000/svg" xmlns:xlink="http://www.w3.org/1999/xlink" version="1.1" x="0px" y="0px" viewBox="0 0 52 65" enable-background="new 0 0 52 52" xml:space="preserve"><g><g><g><path fill="none" stroke="#000000" stroke-width="2" stroke-linecap="round" stroke-linejoin="round" stroke-miterlimit="10" d="     M45.9933739,41.138298L45.9933739,41.138298l2.8134346-5.0990334c0.4115829-0.745945,0.6281853-1.5999107,0.6264839-2.4699326     l-0.002903-18.4773407L42.48209,15.1054926l0.002903,18.4773407c0.0017014,0.8700218,0.2605324,1.7231407,0.6750259,2.4674721     L45.9933739,41.138298z"/><path fill="none" stroke="#000000" stroke-width="2" stroke-linecap="round" stroke-linejoin="round" stroke-miterlimit="10" d="     M44.9989891,9.2027655l1.8638916-0.003643c1.39328-0.0027237,2.5640488,1.2232294,2.5670128,2.7382345l0.0004959,3.1546354     L42.48209,15.1054926l-0.0004959-3.1546354C42.4786301,10.4358521,43.6057053,9.2054892,44.9989891,9.2027655z"/></g></g><g><path fill="none" stroke="#000000" stroke-width="2" stroke-linecap="round" stroke-linejoin="round" stroke-miterlimit="10" d="    M35.6180305,48.6914063H5.2333641c-1.4727592,0-2.6666665-1.1939049-2.6666665-2.6666641V5.9752593    c0-1.4727597,1.1939073-2.666667,2.6666665-2.666667h30.3846664c1.4727592,0,2.6666641,1.1939073,2.6666641,2.666667v40.0494843    C38.2846947,47.4975014,37.0907898,48.6914063,35.6180305,48.6914063z"/><g><line fill="none" stroke="#000000" stroke-width="2" stroke-linecap="round" stroke-linejoin="round" stroke-miterlimit="10" x1="15.9758167" y1="19.5169258" x2="33.5591507" y2="19.5169258"/><line fill="none" stroke="#000000" stroke-width="2" stroke-linecap="round" stroke-linejoin="round" stroke-miterlimit="10" x1="15.9758167" y1="29.9194126" x2="33.5591507" y2="29.9194126"/><line fill="none" stroke="#000000" stroke-width="2" stroke-linecap="round" stroke-linejoin="round" stroke-miterlimit="10" x1="15.9758167" y1="40.3218994" x2="33.5591507" y2="40.3218994"/><circle fill="none" stroke="#000000" stroke-width="2" stroke-linecap="round" stroke-linejoin="round" stroke-miterlimit="10" cx="9.555542" cy="19.5169067" r="2.5"/><circle fill="none" stroke="#000000" stroke-width="2" stroke-linecap="round" stroke-linejoin="round" stroke-miterlimit="10" cx="9.555542" cy="29.9194336" r="2.5"/><circle fill="none" stroke="#000000" stroke-width="2" stroke-linecap="round" stroke-linejoin="round" stroke-miterlimit="10" cx="9.555542" cy="40.3218994" r="2.5"/></g></g></g><g><g><g><path fill="none" stroke="#000000" stroke-width="2" stroke-linecap="round" stroke-linejoin="round" stroke-miterlimit="10" d="     M45.9933739,41.138298L45.9933739,41.138298l2.8134346-5.0990334c0.4115829-0.745945,0.6281853-1.5999107,0.6264839-2.4699326     l-0.002903-18.4773407L42.48209,15.1054926l0.002903,18.4773407c0.0017014,0.8700218,0.2605324,1.7231407,0.6750259,2.4674721     L45.9933739,41.138298z"/><path fill="none" stroke="#000000" stroke-width="2" stroke-linecap="round" stroke-linejoin="round" stroke-miterlimit="10" d="     M44.9989891,9.2027655l1.8638916-0.003643c1.39328-0.0027237,2.5640488,1.2232294,2.5670128,2.7382345l0.0004959,3.1546354     L42.48209,15.1054926l-0.0004959-3.1546354C42.4786301,10.4358521,43.6057053,9.2054892,44.9989891,9.2027655z"/></g></g><g><path fill="none" stroke="#000000" stroke-width="2" stroke-linecap="round" stroke-linejoin="round" stroke-miterlimit="10" d="    M35.6180305,48.6914063H5.2333641c-1.4727592,0-2.6666665-1.1939049-2.6666665-2.6666641V5.9752593    c0-1.4727597,1.1939073-2.666667,2.6666665-2.666667h30.3846664c1.4727592,0,2.6666641,1.1939073,2.6666641,2.666667v40.0494843    C38.2846947,47.4975014,37.0907898,48.6914063,35.6180305,48.6914063z"/><g><line fill="none" stroke="#000000" stroke-width="2" stroke-linecap="round" stroke-linejoin="round" stroke-miterlimit="10" x1="15.9758167" y1="19.5169258" x2="33.5591507" y2="19.5169258"/><line fill="none" stroke="#000000" stroke-width="2" stroke-linecap="round" stroke-linejoin="round" stroke-miterlimit="10" x1="15.9758167" y1="29.9194126" x2="33.5591507" y2="29.9194126"/><line fill="none" stroke="#000000" stroke-width="2" stroke-linecap="round" stroke-linejoin="round" stroke-miterlimit="10" x1="15.9758167" y1="40.3218994" x2="33.5591507" y2="40.3218994"/><circle fill="none" stroke="#000000" stroke-width="2" stroke-linecap="round" stroke-linejoin="round" stroke-miterlimit="10" cx="9.555542" cy="19.5169067" r="2.5"/><circle fill="none" stroke="#000000" stroke-width="2" stroke-linecap="round" stroke-linejoin="round" stroke-miterlimit="10" cx="9.555542" cy="29.9194336" r="2.5"/><circle fill="none" stroke="#000000" stroke-width="2" stroke-linecap="round" stroke-linejoin="round" stroke-miterlimit="10" cx="9.555542" cy="40.3218994" r="2.5"/></g></g></g><text x="0" y="67" fill="#000000" font-size="5px" font-weight="bold" font-family="'Helvetica Neue', Helvetica, Arial-Unicode, Arial, Sans-serif">Created by Dinosoft Labs</text><text x="0" y="72" fill="#000000" font-size="5px" font-weight="bold" font-family="'Helvetica Neue', Helvetica, Arial-Unicode, Arial, Sans-serif">from the Noun Project</text></svg>