<svg xmlns="http://www.w3.org/2000/svg" data-name="Layer 1" viewBox="0 0 100 125" x="0px" y="0px"><title>Second</title><rect x="15.42" y="33.33" width="42" height="5"/><rect x="15.42" y="75.83" width="20" height="5"/><rect x="15.42" y="19.17" width="24.41" height="5"/><path d="M93.29,29.34a5.84,5.84,0,0,0-8.26,0L52.41,62l8.26,8.27L93.29,37.61A5.85,5.85,0,0,0,93.29,29.34Z"/><path d="M42.51,64.79,45.33,62l.3-.29H15.42v5H41.19A6.8,6.8,0,0,1,42.51,64.79Z"/><polygon points="57.42 49.88 57.42 47.5 15.42 47.5 15.42 52.5 54.8 52.5 57.42 49.88"/><path d="M62.85,75.12V90H10V10H44.67V24.4a3.78,3.78,0,0,0,3.78,3.78h14.4V44.45l5-5V26a3.22,3.22,0,0,0-.93-2.25L49.13,5.93A3.14,3.14,0,0,0,46.89,5H8.78A3.78,3.78,0,0,0,5,8.78V91.22A3.78,3.78,0,0,0,8.78,95H64.07a3.78,3.78,0,0,0,3.78-3.78V70.12ZM49.67,13.54l9.64,9.64H49.67Z"/><path d="M49.88,64.49l-3.83,3.83a1.77,1.77,0,0,0-.52,1L44,77.83a.68.68,0,0,0,.79.79l8.51-1.51a1.9,1.9,0,0,0,1-.52l3.84-3.84Z"/></svg>